# xmcd CD database file
# Copyright (C) 1996 Ti Kan
#
# Track frame offsets:
# 	182
# 	20732
# 	36647
# 	49712
# 	66785
# 	91810
#
# Disc length: 1612 seconds
#
# Revision: 1
# Processed by: cddbd v1.4b41PL1 Copyright (c) Steve Scherf et al.
# Submitted via: DiscPlay 3.4.1
#
DISCID=4d064a06
DTITLE=Texas Tornados - The Nada Mixes
DYEAR=1900
DGENRE=
TTITLE0=Cyclone Step
TTITLE1=Album Version
TTITLE2=Ta Bueno Compadre (It's OK Friend)
TTITLE3=Cibola Nada
TTITLE4=Cibola Extended Nada
TTITLE5=Cibola Nada Dub
EXTD=
EXTT0=
EXTT1=
EXTT2=
EXTT3=
EXTT4=
EXTT5=
PLAYORDER=
